<?xml version="1.0" encoding="utf-8"?>
<!-- Generator: Adobe Illustrator 23.0.3, SVG Export Plug-In . SVG Version: 6.00 Build 0)  -->
<svg version="1.1" id="Capa_1" xmlns="http://www.w3.org/2000/svg" xmlns:xlink="http://www.w3.org/1999/xlink" x="0px" y="0px"
	 viewBox="0 0 1200 1200" enable-background="new 0 0 1200 1200" xml:space="preserve">
<g>
	<path fill="#727F39" d="M188.235,577.924c-10.789,22.988-18.795,45.781-23.992,68.005c-34.266,21.184-69.41,20.214-84.706,18.429
		c11.943-18.308,28.075-33.475,47.074-44.177c3.528-1.986,5.319-6.063,4.394-10.004s-4.339-6.798-8.38-7.011
		C95.936,601.757,70.652,592.104,50,575.657l57.691-0.838c3.65-0.053,6.914-2.282,8.293-5.661c1.38-3.379,0.606-7.256-1.964-9.846
		c-11.648-11.748-24.727-21.496-39.018-29.099c5.981-2.31,12.481-4.948,18.868-7.538c13.108-5.316,32.864-13.327,37.61-13.678
		c3.737,0.242,7.2-1.846,8.784-5.232c1.626-3.481,0.891-7.607-1.835-10.313c-20.91-20.739-22.585-34.575-22.883-63.896
		c18.188,5.87,36.086,13.074,53.312,21.467c3.617,1.764,7.962,0.94,10.686-2.022c2.724-2.964,3.177-7.365,1.115-10.819
		c-14.62-24.511-21.163-53.283-18.642-81.576c35.566,1.313,55.396,6.165,80.08,28.09c2.564,2.275,6.192,2.915,9.38,1.662
		c3.19-1.257,5.403-4.203,5.723-7.616c1.306-13.932,5.736-25.444,10.426-37.634c3.599-9.349,7.285-18.933,9.613-29.819
		c12.63,13.972,23.993,29.183,33.871,45.359c1.655,2.708,4.596,4.357,7.767,4.357c0.027,0,0.053,0,0.08,0
		c3.199-0.029,6.147-1.733,7.767-4.492c8.966-15.274,16.927-31.1,23.762-47.232c5.501,22.056,11.579,60.844-3.281,90.114
		c-9.736,4.858-20.359,10.991-31.552,18.715c-2.698-14.198-6.876-24.692-7.11-25.276c-1.877-4.659-7.178-6.907-11.83-5.039
		c-4.659,1.873-6.92,7.169-5.054,11.83c0.061,0.153,5.605,14.189,7.457,30.788c-9.956,7.969-20.21,17.219-30.564,27.943
		c-13.767-23.165-48.528-46.971-56.802-52.428c-4.194-2.768-9.842-1.611-12.605,2.586c-2.768,4.194-1.611,9.84,2.586,12.605
		c20.204,13.325,49.549,37.804,53.763,51.528c-10.063,11.609-20.137,24.663-30.042,39.382c-36.7-18.841-51.45-40.809-51.72-41.219
		c-2.717-4.21-8.324-5.43-12.554-2.726c-4.23,2.71-5.463,8.34-2.753,12.572c0.709,1.106,16.758,25.621,57.122,46.741
		c-6.49,10.526-12.874,21.829-19.108,33.916c-19.054-13.727-52.605-19.454-60.408-20.633c-4.992-0.738-9.604,2.668-10.355,7.636
		c-0.753,4.968,2.666,9.606,7.633,10.359C151.416,561.425,178.295,568.917,188.235,577.924z M1125.598,486.771
		c-9.657-1.851-12.434-7.405-13.23-10.55c-1.462-5.787,1.3-12.043,7.578-17.164c9.897-8.073,18.813-16.498,17.342-23.538
		c-3.319-3.272-19.559-6.136-28.375-7.691c-17.969-3.17-32.16-5.672-36.137-15.613c-1.062-2.65-2.159-8.02,2.404-14.214
		c5.863-7.956,15.791-14.603,26.302-21.641c9.973-6.678,24.864-16.651,24.238-22.525c-7.836-4.848-49.435,0.829-90.422,12.459
		c-4.663,1.326-9.544-1.242-11.101-5.83c-8.044-23.709-18.717-50.915-25.244-62.983c-4.783,10.128-11.146,32.12-15.347,54.09
		c-0.698,3.655-3.552,6.516-7.205,7.225c-3.652,0.698-7.371-0.88-9.384-4.008c-12.27-19.05-26.804-37.228-34.468-43.524
		c-0.578,6.547,1.182,19.648,5.261,39.107c0.713,3.401,1.232,5.91,1.589,7.884c17.862,12.305,34.431,26.523,49.315,42.432
		c9.952-10.62,16.279-25.141,16.353-25.314c1.979-4.617,7.325-6.756,11.943-4.785c4.617,1.975,6.763,7.311,4.794,11.93
		c-0.373,0.873-8.033,18.605-21.034,31.892c6.276,7.587,12.186,15.502,17.705,23.718l21.329-19.727
		c3.69-3.412,9.449-3.188,12.859,0.502c3.412,3.69,3.188,9.446-0.502,12.859l-23.838,22.048c0.167,0.285,0.343,0.564,0.509,0.85
		c1.402,2.42,2.748,4.854,4.068,7.294c42.556-9.616,60.676-23.546,60.863-23.692c3.939-3.095,9.653-2.444,12.766,1.475
		c3.115,3.919,2.501,9.6-1.397,12.737c-0.845,0.681-19.797,15.601-63.879,26.219c2.559,5.603,4.901,11.238,7.03,16.889
		c37.712,12.492,60.633,8.405,60.87,8.361c4.91-0.931,9.688,2.282,10.646,7.196s-2.208,9.673-7.116,10.657
		c-0.478,0.096-5.418,1.04-14.172,1.04c-9.886,0-24.651-1.221-43.326-6.207c1.335,4.755,2.518,9.509,3.545,14.252
		c25.662,11.151,46.194,6.104,59.123-0.363c19.839-9.919,30.889-27.181,32.149-33.797
		C1149.745,495.404,1144.779,490.443,1125.598,486.771z"/>
	<path fill="#D86D68" d="M1009.04,457.034c-0.067-0.105-0.134-0.208-0.197-0.316c-43.461-70.101-116.953-118.509-198.179-130.113
		c-134.95-19.288-177.389,86.416-188.551,126.983c24.322,23.838,47.6,55.36,66.297,97.025
		c47.292,105.378,56.622,171.078,54.849,213.26c149.339,19.706,250.25-25.371,292.125-130.622
		c19.346-48.622,11.008-111.974-22.303-169.467C1011.766,461.512,1010.417,459.263,1009.04,457.034z M925.502,445.458
		c3.382-2.619,7.713-5.289,11.693-5.328c1.573-0.016,3.089,0.379,4.472,1.349c2.659,1.865,3.725,5.426,3.357,8.653
		c-0.369,3.227-1.945,6.186-3.685,8.928c-6.54,10.308-15.873,18.825-26.736,24.397c-3.589,1.841-7.576,3.4-11.566,2.806
		C878.995,482.684,919.836,449.845,925.502,445.458z M942.1,583.959c-1.354,9.623-7.417,18.07-14.854,24.326
		c-4.158,3.497-9.197,6.55-14.622,6.258c-12.171-0.655-11.495-14.747-5.352-21.612c2.713-3.031,6.027-5.537,8.332-8.887
		c4.294-6.244,5.748-15.818,13.083-17.726c0.881-0.229,1.78-0.306,2.67-0.252c3.389,0.208,6.676,2.324,8.553,5.235
		C942.283,574.977,942.71,579.627,942.1,583.959z M830.959,412.714c0.257-2.437,1.957-4.451,3.662-6.21
		c11.855-12.22,27.578-18.517,41.855-27.236c10.839-6.62,15.21-1.376,15.488,6.339c0.222,6.161-2.167,13.899-5.955,18.428
		c-8.772,10.486-24.658,15.2-37.381,16.489C843.538,421.041,830.058,421.289,830.959,412.714z M843.438,530.484
		c3.255-3.709,7.608-7.724,12.409-6.585c2.64,0.627,4.571,2.703,5.787,5.196c0.564,1.156,0.975,2.401,1.232,3.633
		c2.699,12.946-6.52,25.257-16.269,34.193c-4.784,4.387-10.404,8.69-16.895,8.737C800.349,575.868,838.18,536.477,843.438,530.484z
		 M820.793,626.161c3.255-3.709,7.607-7.724,12.409-6.585c2.64,0.627,4.57,2.703,5.787,5.196c0.563,1.156,0.974,2.401,1.231,3.633
		c2.699,12.946-6.52,25.256-16.268,34.193c-4.785,4.387-10.404,8.69-16.895,8.737C777.703,671.545,815.533,632.154,820.793,626.161z
		 M790.266,476.681c-3.596,3.261-7.191,6.522-10.786,9.782c-4.458,4.042-9.409,8.302-15.414,8.679
		c-13.513,0.848-12.263-14.356-4.962-20.591c5.69-4.859,11.677-9.368,17.917-13.493c2.357-1.557,4.819-3.086,7.476-3.975
		c0.889-0.297,1.798-0.523,2.734-0.654c3.732-0.523,7.979,0.836,9.783,4.146C800.031,466.111,794.937,472.446,790.266,476.681z
		 M747.794,393.523c2.173-1.022,4.357-2.097,6.558-3.181c10.333-5.087,21.016-10.346,32.758-11.357h0.002
		c3.71-0.344,7.136,1.882,8.709,5.61c1.58,3.743,0.753,7.893-2.059,10.328c-8.869,7.671-20.059,11.639-30.883,15.476
		c-2.333,0.826-4.65,1.648-6.916,2.499c-1.131,0.424-2.277,0.629-3.397,0.629c-3.899,0-7.507-2.464-9.275-6.654
		C741,401.44,742.893,395.824,747.794,393.523z M729.116,465.744c-3.596,3.261-7.191,6.522-10.787,9.782
		c-4.457,4.042-9.407,8.302-15.412,8.679c-13.513,0.848-12.263-14.356-4.962-20.592c5.69-4.859,11.677-9.368,17.917-13.493
		c2.357-1.557,4.819-3.086,7.476-3.975c0.888-0.297,1.798-0.523,2.734-0.654c3.732-0.523,7.979,0.836,9.783,4.146
		C738.881,455.174,733.786,461.509,729.116,465.744z M761.424,598.957c-4.785,4.387-10.404,8.69-16.895,8.737
		c-29.353,0.21,8.478-39.181,13.736-45.174c3.255-3.709,7.608-7.724,12.409-6.585c2.64,0.627,4.571,2.703,5.787,5.196
		c0.564,1.156,0.974,2.401,1.232,3.633C780.392,577.71,771.172,590.021,761.424,598.957z M942.334,703.88
		c-34.664,26.075-78.856,39.229-131.626,39.229c-8.6,0-17.42-0.349-26.473-1.049c-5.01-0.387-8.758-4.763-8.371-9.775
		c0.387-5.008,4.719-8.747,9.775-8.371c60.039,4.632,109.081-6.994,145.756-34.577c4.012-3.021,9.722-2.215,12.741,1.802
		C947.158,695.156,946.351,700.859,942.334,703.88z M983.941,667.506l-11.795,11.992c-1.78,1.811-4.134,2.719-6.487,2.719
		c-2.304,0-4.608-0.869-6.38-2.613c-3.583-3.523-3.632-9.284-0.107-12.868l11.795-11.992c3.523-3.583,9.286-3.63,12.868-0.107
		C987.418,658.162,987.467,663.922,983.941,667.506z M995.585,529.459c-1.035,5.218-2.885,10.275-5.462,14.929
		c-1.571,2.838-3.575,5.668-6.557,6.944c-3.849,1.647-8.589,0.149-11.388-2.964c-6.576-7.312-1.765-19.381-1.092-27.973
		c0.429-5.488,2.222-11.578,7.119-14.093c5.372-2.758,12.373,0.379,15.479,5.558c0.911,1.519,1.552,3.151,1.973,4.848
		C996.674,520.8,996.415,525.273,995.585,529.459z M607.093,463.992c-0.969-0.62-1.802-1.413-2.462-2.324
		c-23.338-21.723-50.222-38.496-80.505-50.18c-48.856-18.848-88.287-16.642-88.671-16.618c-0.369,0.022-0.74,0.024-1.109,0.002
		c-0.04-0.002-0.602-0.029-1.642-0.029c-7.242,0-37.708,1.246-76.537,20.41c-41.137,20.302-100.38,65.463-149.044,165.32
		c-0.003,0.007-0.007,0.013-0.01,0.02c-0.007,0.013-0.012,0.024-0.019,0.037c-34.664,71.152-41.295,139.98-18.673,193.807
		c19.159,45.592,59.259,79.683,115.966,98.584c0.233,0.078,0.462,0.164,0.686,0.26c97.336,41.424,277.675,38.356,364.081-6.192
		c26.251-13.532,41.546-29.439,45.47-47.276c0.604-2.75,1.417-5.694,2.359-9.1c8.44-30.527,26-94.048-45.179-252.651
		C654.933,520.464,633.296,489.043,607.093,463.992z M580.209,532.178c3.563-3.068,8.36-2.753,11.657,0.766l4.003,4.263
		c13.054,13.885,26.551,28.243,37.501,44.639c2.384,3.566,1.802,7.842-1.449,10.637c-1.746,1.502-3.897,2.255-6.018,2.255
		c-2.097,0-4.166-0.738-5.785-2.213c-14.049-12.799-25.795-27.75-37.154-42.211l-4.048-5.143
		C575.421,540.742,576.827,535.088,580.209,532.178z M516.515,589.718c1.706-2.803,4.281-4.412,7.446-4.652
		c20.733-1.573,67.207,62.833,47.766,62.801c-1.272-0.003-2.363-0.143-3.013-0.227c-4.705-0.604-8.367-3.566-11.715-6.547
		l-4.252-3.77c-11.498-9.792-21.13-21.581-31.874-32.163C517.657,601.992,512.272,596.691,516.515,589.718z M472.36,434
		c2.573-2.217,6.152-1.775,10.644,1.313c8.624,5.936,15.682,12.894,21.579,21.276c7.933,11.272,9.022,23.445,6.023,29.174
		c-1.38,2.635-3.686,4.141-6.327,4.141c-0.018,0-0.033,0-0.051,0c-4.883-0.036-9.906-5.099-14.934-15.049
		c-1.944-3.848-5.068-7.46-8.087-10.955c-3.237-3.743-6.583-7.613-8.729-11.997C472.418,451.78,466.924,438.688,472.36,434z
		 M458.064,671.482l-1.682-1.22c-1.075-0.769-2.506-1.715-4.154-2.806c-13.994-9.264-27.566-19.197-26.482-29.83
		c0.398-3.899,2.977-6.48,6.903-6.909c15.107-1.657,62.485,34.013,66.944,47.531c0.611,1.857,1.044,3.73,1.253,5.412
		c0.533,4.339-1.548,6.258-2.837,7.018c-0.964,0.567-2.113,0.911-3.581,0.911C489.014,691.59,479.225,686.909,458.064,671.482z
		 M467.255,762.268c-8.548-4.347-28.32-15.962-30.642-26.272c-2.124-9.43,6.179-21.791,17.293-12.835
		c6.506,5.253,13.513,9.832,20.72,14.451C493.332,749.608,493.409,775.569,467.255,762.268z M407.091,480.446
		c0.678-3.49,3.141-6.44,6.432-7.7c5.718-2.184,12.748,4.128,17.891,8.733c0.886,0.795,1.648,1.482,2.228,1.946
		c10.579,8.464,20.419,17.831,29.248,27.837c2.353,2.666,3.708,4.785,4.268,6.672c0.76,2.544,0.036,4.861-1.937,6.201
		c-1.126,0.766-2.668,1.089-4.439,1.089c-6.878,0-17.238-4.856-20.479-7.411c-7.174-5.654-13.678-12.152-19.97-18.433
		c-3.39-3.386-6.896-6.887-10.43-10.177C407.474,486.944,406.447,483.752,407.091,480.446z M385.775,544.808
		c5.53-4.856,19.339,4.212,19.479,4.301c5.892,3.912,26.187,23.631,23.373,33.35c-0.441,1.52-1.446,2.796-3.162,3.728
		c-6.56,3.565-22.204-6.504-26.331-11.068c-5.296-5.855-9.821-12.557-13.452-19.922
		C383.331,550.427,383.362,546.932,385.775,544.808z M360.189,604.087c0.997,1.004,1.897,1.913,2.648,2.579
		c7.605,6.725,15.223,13.439,22.84,20.152l13.116,11.563c0.724,0.633,1.409,1.233,2.044,1.937c1.404,1.555,2.179,3.232,2.439,5.281
		c1.85,14.602-34.523-4.891-38.288-7.832c-21.704-16.955-30.537-29.203-27.005-37.443c1.702-3.966,4.277-5.221,6.138-5.576
		C349.832,593.657,355.57,599.442,360.189,604.087z M395.641,768.31c-0.429,1.161-1.294,2.105-2.693,2.762
		c-8.585,4.034-21.529-4.148-26.97-10.15c-5.299-5.858-9.824-12.561-13.456-19.928c-2.35-4.77-2.319-8.264,0.093-10.388
		c5.53-4.856,19.339,4.212,19.479,4.301C376.927,738.117,398.897,759.485,395.641,768.31z M302.579,521.377
		c4.539-3.645,8.592,1.29,12.525,3.618c9.812,5.807,19.139,12.683,28.644,18.982c3.859,2.557,7.863,5.274,10.424,9.907
		c1.011,1.829,1.775,4.078,2.097,6.386c0.637,4.557-0.45,9.344-4.76,11.587c-10.303,5.364-29.64-12.913-36.528-18.867
		C309.47,548.225,294.067,528.215,302.579,521.377z M274.534,794.182c-1.8,2.215-4.423,3.366-7.071,3.366
		c-2.015,0-4.043-0.664-5.73-2.033c-11.999-9.735-22.798-20.497-32.1-31.989c-3.161-3.906-2.557-9.637,1.349-12.799
		c3.906-3.161,9.635-2.557,12.799,1.349c8.504,10.508,18.404,20.368,29.421,29.305C277.103,784.547,277.7,790.279,274.534,794.182z
		 M295.586,677.23c-9.482-0.857-18.303-6.723-25.597-12.42c-21.705-16.955-30.538-29.203-27.006-37.443
		c1.702-3.966,4.277-5.221,6.138-5.576c5.71-1.093,11.448,4.692,16.067,9.337c0.997,1.004,1.897,1.913,2.648,2.579
		c7.605,6.725,15.223,13.439,22.84,20.152l13.116,11.563c0.791,0.692,1.464,1.357,2.026,1.993
		C312.05,674.467,304.746,678.058,295.586,677.23z M543.528,861.935c-15.92,1.035-31.405,1.553-46.421,1.553
		c-70.587,0-131.066-11.412-180.271-34.068c-4.565-2.104-6.563-7.507-4.461-12.072c2.099-4.565,7.502-6.56,12.072-4.461
		c56.893,26.197,130.202,36.588,217.898,30.889c5.074-0.32,9.344,3.475,9.671,8.489
		C552.343,857.281,548.542,861.611,543.528,861.935z M607.104,855.386c-7.511,1.04-14.98,1.986-22.198,2.813
		c-0.351,0.042-0.7,0.06-1.046,0.06c-4.563,0-8.498-3.424-9.029-8.064c-0.573-4.992,3.01-9.504,8.004-10.075
		c7.076-0.811,14.403-1.74,21.776-2.759c4.95-0.718,9.573,2.786,10.259,7.767C615.559,850.103,612.082,854.697,607.104,855.386z
		 M617.258,785.319c-4.997,5.007-13.401,3.102-19.983,0.511c-12.323-4.851-24.164-10.923-35.294-18.1
		c-4.964-3.201-33.341-31.407-14.612-34.633c2.97-0.51,5.902,0.862,8.6,2.196c15.497,7.66,30.993,15.319,46.488,22.98
		c5.425,2.682,11.059,5.534,14.662,10.396c1.437,1.941,2.432,4.303,2.834,6.714C620.559,779.009,619.827,782.746,617.258,785.319z
		 M643.648,747.159c-14.026-8.001-27.555-19.368-36.588-32.879c-5.329-7.969-12.863-28.596,6.983-23.515
		c6.048,1.548,10.518,6.488,14.862,10.976c10.438,10.787,33.915,21.306,40.441,34.491c0.321,0.649,0.599,1.271,0.836,1.868
		C676.847,754.837,651.727,751.768,643.648,747.159z"/>
</g>
</svg>
